<?xml version="1.0" encoding="UTF-8"?>
<!-- Generator: Adobe Illustrator 16.0.3, SVG Export Plug-In . SVG Version: 6.00 Build 0)  -->
<svg xmlns="http://www.w3.org/2000/svg" xmlns:xlink="http://www.w3.org/1999/xlink" version="1.1" id="Ebene_1" x="0px" y="0px" width="444.525px" height="88.197px" viewBox="0 0 444.525 88.197" xml:space="preserve">
<g>
	<g>
		<path d="M79.495,47.893c0.969,0.396,2.223,0.739,3.762,1.025c1.544,0.284,3.017,0.429,4.431,0.429c2.642,0,4.73-0.584,6.272-1.75    c1.545-1.167,2.314-2.61,2.314-4.328c0-1.188-0.231-2.17-0.694-2.939c-0.464-0.771-1.08-1.421-1.85-1.948    c-0.773-0.53-1.639-0.958-2.606-1.289c-0.973-0.33-1.96-0.673-2.977-1.024c-1.1-0.353-2.192-0.749-3.27-1.19    c-1.08-0.438-2.037-0.999-2.874-1.684c-0.834-0.684-1.508-1.508-2.016-2.478c-0.503-0.968-0.758-2.179-0.758-3.632    c0-2.687,0.98-4.865,2.942-6.54c1.958-1.673,4.983-2.512,9.078-2.512c1.723,0,3.383,0.155,4.994,0.463    c1.603,0.308,2.849,0.638,3.729,0.991c-0.222,1.277-0.527,2.534-0.924,3.766c-0.926-0.308-2.103-0.617-3.536-0.924    c-1.429-0.308-2.917-0.463-4.457-0.463c-2.688,0-4.593,0.472-5.716,1.42c-1.122,0.947-1.687,2.192-1.687,3.731    c0,0.837,0.191,1.554,0.565,2.148c0.373,0.595,0.881,1.1,1.519,1.52c0.64,0.419,1.362,0.781,2.18,1.089    c0.817,0.311,1.682,0.595,2.609,0.86c1.191,0.396,2.391,0.823,3.601,1.286c1.21,0.463,2.313,1.07,3.301,1.819    c0.994,0.749,1.807,1.695,2.445,2.838c0.64,1.148,0.956,2.579,0.956,4.295c0,1.584-0.315,3.029-0.956,4.327    c-0.638,1.3-1.528,2.401-2.675,3.305c-1.146,0.903-2.512,1.596-4.095,2.079c-1.583,0.485-3.326,0.727-5.219,0.727    c-2.116,0-4.001-0.132-5.651-0.395c-1.651-0.264-2.984-0.618-3.992-1.058C78.502,50.535,78.925,49.214,79.495,47.893z"></path>
	</g>
	<g>
		<path d="M106.015,18.825c0.261-0.042,0.601-0.074,1.024-0.099c0.412-0.022,0.845-0.031,1.285-0.031    c0.348,0,0.781,0.009,1.286,0.031c0.508,0.025,0.893,0.057,1.159,0.099l7.464,28.673l8.323-28.673    c0.354-0.042,0.738-0.074,1.159-0.099c0.417-0.022,0.865-0.031,1.35-0.031c0.357,0,0.718,0,1.095,0    c0.373,0,0.733,0.043,1.087,0.13l8.325,28.275l7.462-28.275c0.266-0.042,0.587-0.074,0.96-0.099    c0.373-0.022,0.738-0.031,1.087-0.031c0.353,0,0.75,0.009,1.19,0.031c0.441,0.025,0.793,0.057,1.056,0.099l-9.707,33.691    c-0.794,0.134-1.563,0.197-2.314,0.197c-0.837,0-1.606-0.063-2.313-0.197l-8.125-27.877l-8.521,27.877    c-0.793,0.134-1.564,0.197-2.313,0.197c-0.837,0-1.607-0.063-2.314-0.197L106.015,18.825z"></path>
	</g>
	<g>
		<path d="M162.049,18.729c-0.485-0.022-0.834-0.034-1.057-0.034c-0.261,0-0.626,0.012-1.087,0.034    c-0.463,0.023-0.825,0.056-1.092,0.1v33.688c0.264,0.044,0.639,0.076,1.126,0.1c0.484,0.022,0.834,0.034,1.056,0.034    c0.261,0,0.626-0.012,1.087-0.034c0.463-0.023,0.825-0.056,1.092-0.1V18.829C162.911,18.785,162.537,18.752,162.049,18.729z"></path>
	</g>
	<g>
		<path d="M171.851,47.893c0.968,0.396,2.221,0.739,3.762,1.025c1.54,0.284,3.015,0.429,4.429,0.429c2.639,0,4.73-0.584,6.271-1.75    c1.544-1.167,2.316-2.61,2.316-4.328c0-1.188-0.233-2.17-0.698-2.939c-0.461-0.771-1.08-1.421-1.85-1.948    c-0.769-0.53-1.639-0.958-2.606-1.289c-0.972-0.33-1.96-0.673-2.973-1.024c-1.103-0.353-2.192-0.749-3.27-1.19    c-1.08-0.438-2.04-0.999-2.874-1.684c-0.837-0.684-1.507-1.508-2.017-2.478c-0.508-0.968-0.761-2.179-0.761-3.632    c0-2.687,0.983-4.865,2.945-6.54c1.956-1.673,4.983-2.512,9.08-2.512c1.72,0,3.382,0.155,4.988,0.463    c1.607,0.308,2.854,0.638,3.734,0.991c-0.222,1.277-0.53,2.534-0.928,3.766c-0.921-0.308-2.104-0.617-3.532-0.924    c-1.432-0.308-2.922-0.463-4.461-0.463c-2.681,0-4.587,0.472-5.713,1.42c-1.12,0.947-1.682,2.192-1.682,3.731    c0,0.837,0.187,1.554,0.562,2.148c0.373,0.595,0.881,1.1,1.516,1.52c0.639,0.419,1.366,0.781,2.183,1.089    c0.813,0.311,1.683,0.595,2.608,0.86c1.19,0.396,2.389,0.823,3.599,1.286c1.213,0.463,2.313,1.07,3.302,1.819    c0.991,0.749,1.808,1.695,2.444,2.838c0.643,1.148,0.961,2.579,0.961,4.295c0,1.584-0.318,3.029-0.961,4.327    c-0.636,1.3-1.527,2.401-2.675,3.305c-1.142,0.903-2.507,1.596-4.095,2.079c-1.583,0.485-3.326,0.727-5.216,0.727    c-2.119,0-3.998-0.132-5.649-0.395c-1.653-0.264-2.986-0.618-3.997-1.058C170.858,50.535,171.274,49.214,171.851,47.893z"></path>
	</g>
	<g>
		<path d="M200.101,47.893c0.968,0.396,2.221,0.739,3.762,1.025c1.54,0.284,3.015,0.429,4.429,0.429c2.639,0,4.73-0.584,6.271-1.75    c1.544-1.167,2.316-2.61,2.316-4.328c0-1.188-0.233-2.17-0.698-2.939c-0.461-0.771-1.08-1.421-1.85-1.948    c-0.769-0.53-1.639-0.958-2.606-1.289c-0.972-0.33-1.96-0.673-2.973-1.024c-1.103-0.353-2.192-0.749-3.27-1.19    c-1.08-0.438-2.04-0.999-2.874-1.684c-0.837-0.684-1.507-1.508-2.017-2.478c-0.508-0.968-0.761-2.179-0.761-3.632    c0-2.687,0.983-4.865,2.945-6.54c1.956-1.673,4.983-2.512,9.08-2.512c1.72,0,3.382,0.155,4.988,0.463    c1.607,0.308,2.854,0.638,3.734,0.991c-0.222,1.277-0.53,2.534-0.928,3.766c-0.921-0.308-2.104-0.617-3.532-0.924    c-1.432-0.308-2.922-0.463-4.461-0.463c-2.681,0-4.587,0.472-5.713,1.42c-1.12,0.947-1.682,2.192-1.682,3.731    c0,0.837,0.187,1.554,0.562,2.148c0.373,0.595,0.881,1.1,1.516,1.52c0.639,0.419,1.366,0.781,2.183,1.089    c0.813,0.311,1.683,0.595,2.608,0.86c1.19,0.396,2.389,0.823,3.599,1.286c1.213,0.463,2.313,1.07,3.302,1.819    c0.991,0.749,1.808,1.695,2.444,2.838c0.643,1.148,0.961,2.579,0.961,4.295c0,1.584-0.318,3.029-0.961,4.327    c-0.636,1.3-1.527,2.401-2.675,3.305c-1.142,0.903-2.507,1.596-4.095,2.079c-1.583,0.485-3.326,0.727-5.216,0.727    c-2.119,0-3.998-0.132-5.649-0.395c-1.653-0.264-2.986-0.618-3.997-1.058C199.108,50.535,199.524,49.214,200.101,47.893z"></path>
	</g>
	<linearGradient id="SVGID_1_" gradientUnits="userSpaceOnUse" x1="27.6479" y1="79.6118" x2="27.6479" y2="0">
		<stop offset="0" style="stop-color:#BB132B"></stop>
		<stop offset="1" style="stop-color:#E30613"></stop>
	</linearGradient>
	<path fill="url(#SVGID_1_)" d="M54.605,9.925C52.293,1.331,44.253-2.402,34.731,1.618l-14.166,5.98C9.257,12.374,0,26.326,0,38.605   v25.75c0,4.213,1.111,7.684,2.995,10.254c3.618,4.929,10.137,6.522,17.57,3.388l14.166-5.98   c11.316-4.775,20.565-18.728,20.565-31.006V15.26C55.296,13.313,55.044,11.542,54.605,9.925z"></path>
	<rect x="17.654" y="26.988" fill="#FFFFFF" width="30.673" height="9.216"></rect>
	<rect x="28.377" y="16.258" fill="#FFFFFF" width="9.219" height="30.669"></rect>
	<g>
		<path d="M158.437,11.673c-0.042-0.367-0.071-0.814-0.093-1.342c-0.021-0.528-0.029-0.974-0.029-1.341    c0-0.323,0.008-0.731,0.029-1.218c0.022-0.488,0.051-0.893,0.093-1.219c0.364-0.041,0.813-0.068,1.337-0.092    c0.531-0.019,0.977-0.028,1.344-0.028c0.323,0,0.729,0.009,1.215,0.028c0.492,0.023,0.895,0.051,1.224,0.092    c0.036,0.326,0.065,0.731,0.085,1.219c0.023,0.486,0.031,0.895,0.031,1.218c0,0.367-0.007,0.813-0.031,1.341    c-0.021,0.528-0.05,0.975-0.085,1.342c-0.33,0.039-0.732,0.072-1.224,0.09c-0.486,0.02-0.892,0.029-1.215,0.029    c-0.367,0-0.813-0.009-1.344-0.029C159.25,11.745,158.801,11.712,158.437,11.673z"></path>
	</g>
	<path d="M249.359,35.735c-0.698-0.742-1.54-1.368-2.502-1.862c-0.93-0.474-1.925-0.89-2.954-1.233l-2.783-0.949   c-0.749-0.25-1.446-0.498-2.091-0.748c-0.605-0.235-1.146-0.52-1.606-0.847c-0.432-0.305-0.777-0.678-1.028-1.107   c-0.24-0.41-0.361-0.925-0.361-1.531c0-1.158,0.461-1.908,1.45-2.361c1.116-0.509,2.425-0.767,3.89-0.767   c1.422,0,2.766,0.154,3.994,0.458c1.245,0.305,2.341,0.627,3.256,0.96l0.515,0.187l0.233-0.496   c0.348-0.739,0.646-1.558,0.889-2.436c0.242-0.89,0.407-1.773,0.491-2.626l0.046-0.466l-0.44-0.157   c-1.204-0.43-2.625-0.81-4.222-1.129c-1.613-0.323-3.279-0.486-4.952-0.486c-4.083,0-7.241,0.897-9.385,2.666   c-2.177,1.795-3.282,4.246-3.282,7.285c0,2.301,0.673,4.163,2,5.535c1.277,1.322,3.327,2.519,6.098,3.558l2.24,0.832   c0.786,0.248,1.527,0.509,2.203,0.776c0.645,0.252,1.217,0.558,1.701,0.907c0.456,0.328,0.824,0.733,1.095,1.203   c0.261,0.454,0.394,1.055,0.394,1.786c0,0.646-0.164,1.21-0.502,1.725c-0.354,0.541-0.826,1.002-1.403,1.373   c-0.593,0.383-1.306,0.675-2.12,0.868c-2.013,0.481-4.351,0.351-6.597-0.1c-1.332-0.266-2.56-0.627-3.651-1.073l-0.559-0.228   l-0.225,0.561c-0.338,0.845-0.652,1.72-0.931,2.601c-0.285,0.897-0.474,1.799-0.563,2.68l-0.046,0.467l0.442,0.158   c1.316,0.468,2.772,0.849,4.328,1.131c1.546,0.279,3.367,0.42,5.412,0.42c2.032,0,3.92-0.264,5.612-0.785   c1.706-0.526,3.185-1.272,4.394-2.218c1.225-0.957,2.185-2.132,2.854-3.492c0.67-1.359,1.009-2.884,1.009-4.531   c0-1.462-0.217-2.739-0.644-3.793C250.633,37.395,250.062,36.482,249.359,35.735z"></path>
	<path d="M276.982,46.475l-0.186-0.535l-0.551,0.138c-0.503,0.127-1.078,0.244-1.71,0.35c-0.608,0.102-1.275,0.154-1.983,0.154   c-0.889,0-1.63-0.089-2.197-0.265c-0.489-0.152-0.868-0.45-1.159-0.913c-0.32-0.508-0.553-1.271-0.691-2.267   c-0.147-1.042-0.222-2.483-0.222-4.281V24.217h8.361l0.101-0.497c0.092-0.454,0.158-0.909,0.207-1.367   c0.043-0.452,0.064-0.933,0.064-1.43c0-0.955-0.092-1.835-0.276-2.619l-0.11-0.478h-8.347v-8.28h-3.193l-4.072,8.408l-5.529,0.892   l-0.332,1.365l0.08,2.313l0.481,1.691h4.938v18.354c0,3.695,0.96,6.396,2.852,8.031c1.87,1.615,4.474,2.434,7.741,2.434   c1.086,0,2.14-0.057,3.136-0.167c0.974-0.111,1.921-0.28,2.818-0.503l0.469-0.117v-0.484c0-0.698-0.034-1.524-0.1-2.457   C277.502,48.347,277.304,47.394,276.982,46.475z"></path>
	<path d="M294.041,18.139c-1.622,0-3.331,0.13-5.078,0.386c-1.749,0.256-3.376,0.625-4.836,1.097l-0.415,0.134v0.437   c0,2.035,0.431,3.815,1.279,5.292l0.24,0.416l0.458-0.142c1.194-0.371,2.436-0.673,3.688-0.899c1.25-0.225,2.606-0.338,4.031-0.338   c2.254,0,3.981,0.447,5.132,1.33c1.102,0.844,1.66,2.427,1.66,4.705v0.52c-0.466-0.052-0.979-0.099-1.534-0.138   c-0.873-0.065-2.005-0.098-3.362-0.098c-1.855,0-3.65,0.23-5.335,0.685c-1.702,0.457-3.233,1.168-4.554,2.113   c-1.334,0.957-2.404,2.173-3.182,3.616c-0.78,1.452-1.176,3.152-1.176,5.054c0,1.938,0.339,3.621,1.007,5   c0.674,1.392,1.641,2.551,2.872,3.445c1.216,0.886,2.715,1.536,4.454,1.932c1.698,0.388,3.624,0.584,5.725,0.584   c2.208,0,4.409-0.184,6.544-0.546c2.089-0.354,3.907-0.707,5.404-1.049l0.466-0.106v-20.76c0-4.373-1.174-7.618-3.49-9.645   C301.746,19.156,298.383,18.139,294.041,18.139z M300.201,37.213v9.297c-0.66,0.149-1.4,0.266-2.21,0.348   c-1.783,0.183-3.425,0.218-5.279,0.031c-0.757-0.075-1.457-0.285-2.079-0.625c-0.612-0.334-1.11-0.806-1.521-1.443   c-0.397-0.611-0.6-1.5-0.6-2.642c0-1.79,0.59-3.076,1.803-3.934c1.258-0.891,3.149-1.342,5.623-1.342   c0.655,0,1.467,0.042,2.411,0.124C299.058,37.09,299.675,37.152,300.201,37.213z"></path>
	<path d="M347.313,17.413c0-1.388,0.187-2.531,0.553-3.4c0.355-0.845,0.836-1.508,1.428-1.971c0.598-0.466,1.321-0.789,2.151-0.959   c0.885-0.181,1.865-0.272,2.914-0.272c1.423,0,2.646,0.102,3.637,0.304c0.998,0.204,2.146,0.556,3.41,1.045l0.498,0.192   l0.249-0.471c0.393-0.743,0.746-1.568,1.049-2.455c0.315-0.922,0.475-1.912,0.475-2.943V6.054l-0.405-0.139   c-1.75-0.598-3.347-1.01-4.747-1.226c-1.395-0.214-2.966-0.323-4.671-0.323c-4.302,0-7.74,1.102-10.221,3.276   c-2.505,2.194-3.774,5.417-3.774,9.581v1.674h-14.447v-1.168c0-1.406,0.13-2.562,0.385-3.432c0.245-0.828,0.592-1.479,1.028-1.934   c0.431-0.448,0.947-0.746,1.58-0.909c0.686-0.176,1.454-0.265,2.283-0.265c0.71,0,1.331,0.049,1.844,0.146   c0.52,0.101,0.963,0.211,1.315,0.329l0.518,0.172l0.221-0.499c0.339-0.767,0.658-1.532,0.956-2.298   c0.312-0.799,0.537-1.784,0.671-2.928l0.059-0.503l-0.485-0.143c-0.736-0.216-1.591-0.403-2.54-0.555   c-0.954-0.151-2.006-0.229-3.126-0.229c-3.903,0-6.94,1.116-9.028,3.315c-2.08,2.19-3.135,5.4-3.135,9.542v1.358h-5.183   l-0.108,0.462c-0.179,0.758-0.269,1.634-0.269,2.603c0,1.015,0.091,1.893,0.271,2.61l0.114,0.454h5.175v27.386l0.493,0.088   c0.489,0.088,1.042,0.154,1.644,0.197c1.214,0.085,2.046,0.085,3.214,0c0.581-0.042,1.123-0.109,1.611-0.197l0.493-0.088V25.026   h14.447v27.385l0.493,0.089c0.487,0.088,1.04,0.154,1.645,0.197c1.209,0.085,2.043,0.085,3.213,0   c0.581-0.042,1.123-0.109,1.611-0.197l0.493-0.088V25.026h13.131v27.385l0.493,0.089c0.485,0.087,1.027,0.154,1.611,0.197   c0.586,0.042,1.114,0.065,1.591,0.065s1.007-0.022,1.591-0.065c0.582-0.042,1.125-0.109,1.612-0.197l0.493-0.089V18.897h-20.522   V17.413z"></path>
	<path d="M393.393,18.139c-1.36,0-2.634,0.191-3.787,0.567c-1.141,0.373-2.169,0.865-3.057,1.463   c-0.876,0.591-1.666,1.271-2.349,2.02c-0.233,0.255-0.454,0.512-0.66,0.771c-0.028-0.309-0.063-0.633-0.103-0.974   c-0.13-1.103-0.257-1.956-0.386-2.606l-0.08-0.4l-0.402-0.073c-0.479-0.087-0.927-0.151-1.341-0.195   c-0.844-0.089-1.848-0.088-2.771,0c-0.459,0.043-0.929,0.108-1.408,0.195l-0.492,0.089v33.415l0.493,0.089   c0.485,0.088,1.039,0.154,1.644,0.197c1.208,0.085,2.042,0.086,3.213,0c0.582-0.043,1.123-0.109,1.611-0.197l0.493-0.088V35.483   c0-1.906,0.233-3.551,0.693-4.892c0.456-1.329,1.063-2.417,1.805-3.235c0.733-0.812,1.594-1.419,2.557-1.804   c0.979-0.391,2.031-0.588,3.128-0.588c1.821,0,3.104,0.604,3.92,1.845c0.857,1.309,1.293,3.42,1.293,6.273v19.33l0.493,0.089   c0.483,0.087,1.024,0.154,1.608,0.197c0.587,0.042,1.117,0.065,1.593,0.065c0.477,0,1.016-0.022,1.622-0.065   c0.602-0.043,1.154-0.109,1.644-0.197l0.493-0.088V31.376c0-4.294-0.938-7.601-2.792-9.829   C400.187,19.286,397.268,18.139,393.393,18.139z"></path>
	<path d="M444.26,19.185l-0.101-0.476h-0.486c-1.783,0-3.438,0.232-4.915,0.689c-1.301,0.401-2.387,0.905-3.237,1.5   c-1.067-0.757-2.325-1.396-3.746-1.903c-1.598-0.568-3.397-0.856-5.35-0.856c-2.164,0-4.124,0.31-5.827,0.921   c-1.713,0.616-3.173,1.476-4.342,2.556c-1.174,1.085-2.084,2.376-2.706,3.839c-0.617,1.457-0.931,3.045-0.931,4.72   c0,2.031,0.45,3.881,1.338,5.5c0.749,1.371,1.721,2.541,2.895,3.486c-0.955,0.81-1.741,1.718-2.343,2.706   c-0.75,1.224-1.13,2.689-1.13,4.356c0,1.34,0.322,2.486,0.958,3.407c0.434,0.625,0.944,1.181,1.526,1.66   c-1.199,0.784-2.211,1.78-3.016,2.969c-0.99,1.464-1.492,3.14-1.492,4.98c0,3.118,1.246,5.438,3.706,6.897   c2.359,1.397,5.8,2.105,10.226,2.105c2.519,0,4.895-0.271,7.063-0.807c2.179-0.54,4.098-1.331,5.706-2.351   c1.623-1.032,2.917-2.283,3.846-3.719c0.944-1.46,1.423-3.131,1.423-4.969c0-2.818-0.917-5.073-2.726-6.702   c-1.786-1.607-4.659-2.467-8.542-2.555l-8.399-0.126c-2.258-0.049-3.002-0.48-3.246-0.733c-0.439-0.456-0.653-0.971-0.653-1.573   c0-0.664,0.235-1.273,0.717-1.862c0.455-0.554,0.915-0.985,1.369-1.284c1.371,0.347,2.91,0.523,4.581,0.523   c1.953,0,3.78-0.276,5.431-0.82c1.666-0.547,3.126-1.351,4.341-2.388c1.222-1.044,2.178-2.315,2.84-3.776   c0.666-1.46,1.003-3.117,1.003-4.925c0-1.14-0.135-2.175-0.403-3.08c-0.164-0.543-0.371-1.066-0.619-1.564h5.166l0.082-0.503   c0.086-0.521,0.153-1.043,0.195-1.563c0.044-0.523,0.065-1.024,0.065-1.503C444.525,20.955,444.437,20.021,444.26,19.185z    M418.431,58.039c0-1.333,0.415-2.442,1.27-3.39c0.799-0.888,1.977-1.32,3.602-1.32l7.407,0.129   c1.995,0.038,3.357,0.352,4.048,0.933c0.665,0.56,0.988,1.36,0.988,2.448c0,1.469-0.835,2.674-2.551,3.684   c-1.791,1.056-4.346,1.591-7.592,1.591c-1.104,0-2.124-0.072-3.035-0.213c-0.878-0.137-1.646-0.372-2.281-0.698   c-0.597-0.308-1.062-0.716-1.382-1.213C418.59,59.501,418.431,58.845,418.431,58.039z M426.425,36.336   c-2.08,0-3.616-0.566-4.565-1.684c-0.975-1.147-1.47-2.653-1.47-4.477c0-1.867,0.496-3.406,1.474-4.574   c0.948-1.136,2.483-1.712,4.562-1.712c2.08,0,3.627,0.577,4.598,1.716c0.994,1.167,1.499,2.704,1.499,4.57   c0,1.849-0.489,3.312-1.496,4.472C430.055,35.768,428.507,36.336,426.425,36.336z"></path>
	<g>
		<path d="M287.878,65.536c0.518-0.103,1.24-0.186,2.171-0.248c0.93-0.062,1.87-0.093,2.821-0.093c1.178,0,2.252,0.104,3.224,0.31    s1.803,0.542,2.495,1.007s1.229,1.064,1.612,1.798c0.382,0.734,0.573,1.627,0.573,2.682c0,0.641-0.098,1.235-0.295,1.783    c-0.195,0.548-0.459,1.034-0.79,1.457c-0.331,0.424-0.713,0.775-1.147,1.054c-0.434,0.279-0.878,0.48-1.332,0.604    c0.578,0.062,1.162,0.217,1.751,0.465c0.589,0.248,1.121,0.6,1.597,1.054c0.475,0.455,0.863,1.028,1.162,1.721    c0.3,0.692,0.449,1.534,0.449,2.526c0,1.199-0.237,2.216-0.713,3.053c-0.475,0.837-1.121,1.514-1.938,2.031    s-1.777,0.889-2.883,1.116c-1.105,0.228-2.289,0.341-3.549,0.341c-0.786,0-1.643-0.037-2.573-0.108    c-0.931-0.073-1.809-0.161-2.636-0.264V65.536z M293.272,74.836c1.405,0,2.48-0.305,3.225-0.915    c0.744-0.609,1.115-1.524,1.115-2.744c0-1.178-0.398-2.056-1.193-2.635c-0.795-0.578-1.875-0.868-3.239-0.868    c-0.413,0-0.812,0.011-1.193,0.031c-0.383,0.021-0.708,0.052-0.977,0.093v7.037H293.272z M291.01,85.376    c0.289,0.042,0.655,0.073,1.101,0.093c0.443,0.021,0.883,0.031,1.317,0.031c0.743,0,1.441-0.062,2.093-0.186    c0.65-0.124,1.225-0.335,1.721-0.635c0.496-0.299,0.888-0.702,1.178-1.209c0.289-0.506,0.434-1.152,0.434-1.938    c0-0.764-0.135-1.411-0.402-1.938c-0.27-0.527-0.637-0.95-1.102-1.271c-0.465-0.32-1.018-0.547-1.658-0.682    c-0.641-0.134-1.333-0.201-2.076-0.201h-2.604V85.376z"></path>
		<path d="M303.626,65.536c0.228-0.041,0.501-0.072,0.822-0.093c0.32-0.021,0.625-0.031,0.914-0.031    c0.269,0,0.563,0.011,0.883,0.031s0.615,0.052,0.885,0.093l5.642,19.065l5.61-19.065c0.559-0.062,1.127-0.093,1.705-0.093    c0.269,0,0.553,0.005,0.854,0.015c0.299,0.011,0.572,0.037,0.82,0.078l-7.254,22.289c-0.269,0.041-0.568,0.072-0.898,0.093    c-0.331,0.021-0.641,0.031-0.93,0.031c-0.29,0-0.595-0.011-0.915-0.031s-0.625-0.052-0.915-0.093L303.626,65.536z"></path>
		<path d="M337.23,76.293c0.248-0.041,0.507-0.072,0.774-0.093c0.27-0.021,0.537-0.031,0.807-0.031c0.268,0,0.537,0.01,0.807,0.031    c0.268,0.021,0.516,0.052,0.743,0.093v10.881c-0.435,0.186-0.909,0.346-1.426,0.48c-0.517,0.135-1.054,0.237-1.612,0.31    c-0.558,0.072-1.115,0.129-1.674,0.17c-0.559,0.041-1.085,0.062-1.581,0.062c-1.653,0-3.142-0.259-4.464-0.775    c-1.322-0.517-2.439-1.266-3.348-2.248c-0.91-0.981-1.607-2.175-2.093-3.581c-0.485-1.405-0.729-2.997-0.729-4.774    s0.248-3.384,0.744-4.821c0.495-1.436,1.204-2.661,2.123-3.673c0.919-1.012,2.015-1.792,3.286-2.34    c1.271-0.547,2.682-0.822,4.231-0.822c1.179,0,2.201,0.078,3.069,0.232c0.867,0.155,1.652,0.367,2.355,0.636    c-0.041,0.476-0.129,0.915-0.264,1.317c-0.135,0.403-0.294,0.832-0.48,1.287c-0.578-0.186-1.203-0.351-1.875-0.496    c-0.672-0.144-1.514-0.217-2.526-0.217c-1.096,0-2.093,0.196-2.991,0.589c-0.899,0.393-1.664,0.966-2.295,1.721    s-1.121,1.685-1.473,2.79c-0.352,1.106-0.526,2.372-0.526,3.798c0,1.468,0.181,2.733,0.542,3.797    c0.361,1.064,0.873,1.953,1.535,2.666c0.661,0.713,1.441,1.24,2.34,1.581c0.899,0.341,1.896,0.511,2.992,0.511    c0.661,0,1.24-0.036,1.736-0.108c0.496-0.072,0.919-0.16,1.271-0.263V76.293z"></path>
		<path d="M352.327,77.719c0.042,0.207,0.072,0.439,0.094,0.697c0.02,0.259,0.031,0.501,0.031,0.729    c0,0.228-0.012,0.471-0.031,0.729c-0.021,0.259-0.052,0.48-0.094,0.667h-8.028c-0.042-0.186-0.073-0.408-0.093-0.667    c-0.021-0.258-0.031-0.5-0.031-0.729c0-0.227,0.01-0.47,0.031-0.729c0.02-0.258,0.051-0.491,0.093-0.697H352.327z"></path>
		<path d="M356.636,65.536c0.228-0.041,0.471-0.072,0.729-0.093c0.259-0.021,0.532-0.031,0.822-0.031    c0.268,0,0.537,0.011,0.806,0.031s0.526,0.052,0.774,0.093v19.499h8.742c0.042,0.228,0.067,0.465,0.078,0.713    c0.01,0.248,0.016,0.476,0.016,0.682c0,0.496-0.031,0.961-0.094,1.395h-11.873V65.536z"></path>
		<path d="M371.98,65.505c0.311-0.042,0.677-0.083,1.101-0.124s0.868-0.078,1.333-0.109c0.466-0.031,0.931-0.057,1.396-0.077    s0.914-0.031,1.349-0.031c1.136,0,2.216,0.114,3.239,0.341s1.922,0.62,2.697,1.178c0.774,0.558,1.39,1.297,1.844,2.217    c0.455,0.919,0.683,2.072,0.683,3.456c0,1.447-0.243,2.651-0.729,3.612c-0.486,0.961-1.127,1.731-1.922,2.31    c-0.796,0.579-1.7,0.987-2.713,1.224c-1.013,0.238-2.046,0.357-3.1,0.357c-0.394,0-0.739-0.005-1.039-0.016    c-0.3-0.01-0.625-0.036-0.977-0.078v8.06c-0.496,0.062-1.022,0.093-1.581,0.093c-0.248,0-0.511-0.005-0.79-0.015    c-0.279-0.011-0.543-0.037-0.791-0.078V65.505z M375.143,77.006c0.331,0.042,0.62,0.072,0.868,0.093    c0.248,0.021,0.609,0.031,1.085,0.031c0.641,0,1.276-0.067,1.906-0.202c0.631-0.134,1.194-0.377,1.69-0.729    c0.495-0.351,0.894-0.832,1.193-1.441c0.299-0.609,0.449-1.4,0.449-2.372c0-0.847-0.129-1.56-0.388-2.139    c-0.259-0.578-0.615-1.043-1.069-1.395c-0.455-0.351-1.003-0.599-1.643-0.744c-0.642-0.145-1.333-0.217-2.077-0.217    c-0.765,0-1.437,0.031-2.016,0.093V77.006z"></path>
		<path d="M389.526,65.505c0.311-0.042,0.677-0.083,1.101-0.124s0.868-0.078,1.333-0.109c0.466-0.031,0.931-0.057,1.396-0.077    s0.914-0.031,1.349-0.031c1.136,0,2.216,0.114,3.239,0.341s1.922,0.62,2.697,1.178c0.774,0.558,1.39,1.297,1.844,2.217    c0.455,0.919,0.683,2.072,0.683,3.456c0,1.447-0.243,2.651-0.729,3.612c-0.486,0.961-1.127,1.731-1.922,2.31    c-0.796,0.579-1.7,0.987-2.713,1.224c-1.013,0.238-2.046,0.357-3.1,0.357c-0.394,0-0.739-0.005-1.039-0.016    c-0.3-0.01-0.625-0.036-0.977-0.078v8.06c-0.496,0.062-1.022,0.093-1.581,0.093c-0.248,0-0.511-0.005-0.79-0.015    c-0.279-0.011-0.543-0.037-0.791-0.078V65.505z M392.688,77.006c0.331,0.042,0.62,0.072,0.868,0.093    c0.248,0.021,0.609,0.031,1.085,0.031c0.641,0,1.276-0.067,1.906-0.202c0.631-0.134,1.194-0.377,1.69-0.729    c0.495-0.351,0.894-0.832,1.193-1.441c0.299-0.609,0.449-1.4,0.449-2.372c0-0.847-0.129-1.56-0.388-2.139    c-0.259-0.578-0.615-1.043-1.069-1.395c-0.455-0.351-1.003-0.599-1.643-0.744c-0.642-0.145-1.333-0.217-2.077-0.217    c-0.765,0-1.437,0.031-2.016,0.093V77.006z"></path>
	</g>
</g>
</svg>
