<?xml version="1.0" encoding="UTF-8"?>
<!DOCTYPE svg PUBLIC "-//W3C//DTD SVG 1.1//EN" "http://www.w3.org/Graphics/SVG/1.1/DTD/svg11.dtd">
<svg xmlns="http://www.w3.org/2000/svg" version="1.1" width="512px" height="512px" style="shape-rendering:geometricPrecision; text-rendering:geometricPrecision; image-rendering:optimizeQuality; fill-rule:evenodd; clip-rule:evenodd" xmlns:xlink="http://www.w3.org/1999/xlink">
<g><path style="opacity:0.981" fill="#0a0073" d="M 105.5,304.5 C 105.5,303.833 105.167,303.5 104.5,303.5C 104.5,302.833 104.167,302.5 103.5,302.5C 100.527,300.194 97.8605,297.527 95.5,294.5C 148.236,202.697 201.236,111.031 254.5,19.5C 255.5,18.1667 256.5,18.1667 257.5,19.5C 300.837,93.1929 343.337,167.193 385,241.5C 342.359,298.975 299.526,356.308 256.5,413.5C 206.41,376.73 156.076,340.396 105.5,304.5 Z"/></g>
<g><path style="opacity:0.973" fill="#260045" d="M 511.5,457.5 C 511.5,469.5 511.5,481.5 511.5,493.5C 426.5,493.5 341.5,493.5 256.5,493.5C 256.5,492.167 256.5,490.833 256.5,489.5C 302.559,414.397 348.392,339.064 394,263.5C 394.689,262.643 395.522,261.977 396.5,261.5C 398.804,263.431 400.638,265.764 402,268.5C 438.022,331.89 474.522,394.89 511.5,457.5 Z"/></g>
<g><path style="opacity:0.971" fill="#005da1" d="M 95.5,294.5 C 97.8605,297.527 100.527,300.194 103.5,302.5C 104.167,302.5 104.5,302.833 104.5,303.5C 105.167,303.5 105.5,303.833 105.5,304.5C 155.485,366.482 205.818,428.148 256.5,489.5C 256.5,490.833 256.5,492.167 256.5,493.5C 170.833,493.5 85.1667,493.5 -0.5,493.5C -0.5,481.833 -0.5,470.167 -0.5,458.5C 31.5,403.833 63.5,349.167 95.5,294.5 Z"/></g>
</svg>
